<svg width="142" height="154" viewBox="0 0 142 154" fill="none" xmlns="http://www.w3.org/2000/svg">
<path d="M116.532 129.297L116.859 111.197L108.977 97.1098L89.4929 92.2518L85.6991 107.468L92.2312 123.238L107.994 127.168L79.1217 80.6871L84.9311 76.9727L112.591 128.315L116.532 129.297Z" stroke="#006600"/>
<path d="M37.5862 135.717L54.4057 127.847L63.5176 114.828L58.4636 96.129L42.6044 99.7625L31.2829 112.396L35.3715 127.523L64.0375 82.135L70.2961 85.3863L36.564 131.935L37.5862 135.717Z" stroke="#006600"/>
<path d="M86.5881 31.6027L69.3414 23.8751L52.9043 25.05L41.0236 40.268L54.2182 49.8727L71.7706 50.5824L81.382 38.2712L26.0843 44.6783L24.6726 38.0194L84.1853 34.6805L86.5881 31.6027Z" stroke="#006600"/>
</svg>
